<svg width="81" height="80" viewBox="0 0 81 80" fill="none" xmlns="http://www.w3.org/2000/svg">
<circle cx="40.0887" cy="39.75" r="37.5" fill="#F6F8FA"/>
<circle cx="40.0887" cy="40" r="37.5" stroke="#01A95D" stroke-width="5"/>
<path d="M40.2137 43.25C37.0397 43.25 34.3226 42.1403 32.0624 39.9208C29.8022 37.7014 28.672 35.0333 28.672 31.9167C28.672 28.8 29.8022 26.1319 32.0624 23.9125C34.3226 21.6931 37.0397 20.5833 40.2137 20.5833C43.3877 20.5833 46.1048 21.6931 48.365 23.9125C50.6252 26.1319 51.7554 28.8 51.7554 31.9167C51.7554 35.0333 50.6252 37.7014 48.365 39.9208C46.1048 42.1403 43.3877 43.25 40.2137 43.25ZM17.1304 65.9167V57.9833C17.1304 56.3778 17.5516 54.9026 18.3942 53.5577C19.2367 52.2128 20.3543 51.1852 21.747 50.475C24.7286 49.0111 27.7583 47.9137 30.8361 47.1827C33.9139 46.4517 37.0397 46.0852 40.2137 46.0833C43.3877 46.0833 46.5135 46.4498 49.5913 47.1827C52.6691 47.9156 55.6988 49.013 58.6804 50.475C60.075 51.1833 61.1936 52.2109 62.0361 53.5577C62.8786 54.9044 63.299 56.3797 63.297 57.9833V65.9167H17.1304Z" fill="#01A95D"/>
</svg>
